<svg width="20" height="19" viewBox="0 0 20 19" fill="none" xmlns="http://www.w3.org/2000/svg">
<path d="M1.225 15.9335H2.83489L2.83458 18.269C2.83458 18.3933 2.9353 18.494 3.05956 18.494C3.18383 18.494 3.28455 18.3933 3.28455 18.269L3.28471 15.9335H16.7094L16.7091 18.269C16.7091 18.3933 16.8098 18.494 16.9341 18.494C17.0584 18.494 17.1591 18.3933 17.1591 18.269L17.1592 15.9335H18.769C18.8932 15.9335 18.994 15.8328 18.994 15.7085V11.3631C18.994 10.7014 18.8179 10.0756 18.5076 9.5335V2.02831C18.5076 1.18566 17.8221 0.5 16.9795 0.5H3.01451C2.17186 0.5 1.4862 1.18562 1.4862 2.02831L1.48636 9.45762V9.45777C1.17586 10.0002 1 10.6269 1 11.2892V15.7086C1 15.8327 1.10073 15.9334 1.22499 15.9334L1.225 15.9335ZM1.44983 15.4837V13.0095H18.544V15.4837H1.44983ZM1.93619 2.02846C1.93619 1.43382 2.41989 0.94995 3.01454 0.94995H16.9795C17.5741 0.94995 18.0578 1.43366 18.0578 2.02846V8.91313C17.6055 8.40572 17.0142 8.02167 16.3329 7.8263V5.31961C16.3329 4.75951 15.8771 4.30372 15.317 4.30372H10.7881C10.4669 4.30372 10.1834 4.45654 9.99716 4.68999C9.81093 4.45654 9.52744 4.30372 9.20628 4.30372H4.67728C4.11702 4.30372 3.66123 4.75951 3.66123 5.31961V7.75208C2.98015 7.94584 2.38881 8.33025 1.93635 8.83794L1.93619 2.02846ZM9.77196 7.16635C7.48995 7.16165 5.5683 7.38914 4.11072 7.65271V5.31969C4.11072 5.00763 4.36473 4.75361 4.6768 4.75361H9.20579C9.51801 4.75361 9.77188 5.00762 9.77188 5.31969L9.77196 7.16635ZM15.883 7.72601C13.8338 7.35621 11.9342 7.1982 10.2218 7.17202V5.31973C10.2218 5.00767 10.4757 4.75365 10.7879 4.75365H15.3169C15.6289 4.75365 15.883 5.0075 15.883 5.31973V7.72601ZM4.07939 8.11511C6.67645 7.63438 10.8355 7.2561 15.8999 8.18524H15.9001C17.432 8.46608 18.5439 9.8027 18.5439 11.3631V12.5598H1.44971V11.2892C1.44971 9.732 2.55549 8.39703 4.07926 8.11511H4.07939Z" fill="#222222" stroke="#222222" stroke-width="0.6"/>
</svg>
