<svg width="20" height="21" viewBox="0 0 20 21" fill="none" xmlns="http://www.w3.org/2000/svg">
<path d="M15.8773 1.50048C15.0448 1.50048 14.2623 1.82431 13.6741 2.41218L13.5139 2.57206L12.9668 2.02561C12.2964 1.35631 11.2063 1.35615 10.5364 2.02561L9.64004 2.92085C9.59784 2.96306 9.57415 3.02017 9.57415 3.07994C9.57415 3.13971 9.59784 3.19683 9.64004 3.23903L13.21 6.80491C13.254 6.84868 13.3115 6.87065 13.3691 6.87065C13.4267 6.87065 13.4843 6.84868 13.5282 6.80491L14.4245 5.90967C14.749 5.58537 14.9277 5.15421 14.9277 4.69561C14.9277 4.23701 14.7488 3.80588 14.4245 3.48154L13.8322 2.88991L13.992 2.73051C14.4954 2.22736 15.1651 1.95026 15.8773 1.95026C17.3479 1.95026 18.5442 3.14501 18.5442 4.61356V9.58678H14.8208C14.6711 9.16473 14.2717 8.85987 13.7986 8.85987H11.2622C10.7891 8.85987 10.3897 9.16488 10.24 9.58678H1.22499C1.10073 9.58678 1 9.6875 1 9.81177V12.4035C1 14.9058 2.82529 16.9891 5.21531 17.3976L4.61456 19.1979C4.57518 19.3158 4.63872 19.4432 4.75671 19.4825C4.78024 19.4904 4.8044 19.4942 4.82794 19.4942C4.92223 19.4942 5.00977 19.4345 5.04116 19.3402L5.67046 17.4541C5.80366 17.4646 5.93781 17.4715 6.07368 17.4715H13.9195C14.0554 17.4715 14.1895 17.4646 14.3227 17.4541L14.952 19.3402C14.9834 19.4345 15.0711 19.4942 15.1652 19.4942C15.1888 19.4942 15.2129 19.4904 15.2365 19.4825C15.3544 19.4432 15.4178 19.3158 15.3786 19.1979L14.7779 17.3976C17.1683 16.9887 18.9936 14.9056 18.9936 12.4031V4.6131C18.9936 2.89653 17.5955 1.5 15.8768 1.5L15.8773 1.50048ZM14.4778 4.69564C14.4778 5.03406 14.346 5.35209 14.1065 5.59135L13.3691 6.32782L10.1173 3.07996L10.8544 2.34382C11.3491 1.84959 12.1541 1.84959 12.6488 2.34382L13.3542 3.04843C13.3543 3.04859 13.3543 3.04875 13.3545 3.0489C13.3546 3.04906 13.3548 3.04906 13.355 3.04922L14.1065 3.79982C14.3461 4.03924 14.4779 4.35727 14.4779 4.6957L14.4778 4.69564ZM10.6236 9.9472C10.6236 9.59575 10.9101 9.30974 11.2621 9.30974H13.7986C14.1507 9.30974 14.4371 9.59576 14.4371 9.9472V13.9918H10.6235L10.6236 9.9472ZM18.5441 12.4034C18.5441 14.9501 16.4697 17.0219 13.9199 17.0219H6.07409C3.52442 17.0219 1.44991 14.9501 1.44991 12.4034V10.0366H10.1737V14.2166C10.1737 14.3408 10.2743 14.4416 10.3987 14.4416H14.6622C14.7865 14.4416 14.8872 14.3408 14.8872 14.2166V10.0366H18.5444L18.5441 12.4034Z" fill="#222222" stroke="#222222" stroke-width="0.6"/>
</svg>
