<svg width="20" height="21" viewBox="0 0 20 21" fill="none" xmlns="http://www.w3.org/2000/svg">
<path d="M18.855 1.51713C18.7709 1.48229 18.6743 1.50159 18.61 1.56592L1.06592 19.1099C1.00159 19.1743 0.982295 19.2709 1.01713 19.355C1.0518 19.4391 1.13401 19.4939 1.22501 19.4939H18.769C18.8933 19.4939 18.994 19.3931 18.994 19.2689L18.9939 1.72485C18.9939 1.63385 18.9391 1.5518 18.855 1.51697V1.51713ZM18.5441 19.0443H1.76798L4.29616 16.5161L4.76496 16.9896C4.80905 17.034 4.86695 17.0563 4.92484 17.0563C4.98195 17.0563 5.03922 17.0346 5.08299 16.9912C5.17132 16.9038 5.17211 16.7615 5.08471 16.6732L4.61434 16.1981L5.96754 14.8449L6.42803 15.3101C6.47212 15.3545 6.53001 15.3768 6.58791 15.3768C6.64502 15.3768 6.70228 15.3551 6.74606 15.3117C6.83439 15.2243 6.83517 15.082 6.74778 14.9936L6.28556 14.5269L7.63876 13.1737L8.0911 13.6305C8.13519 13.675 8.19308 13.6972 8.25097 13.6972C8.30808 13.6972 8.36535 13.6756 8.40912 13.6321C8.49745 13.5447 8.49824 13.4024 8.41085 13.3141L7.95678 12.8555L9.30998 11.5023L9.75416 11.951C9.79825 11.9954 9.85615 12.0177 9.91404 12.0177C9.97115 12.0177 10.0284 11.996 10.0722 11.9526C10.1605 11.8652 10.1613 11.7229 10.0739 11.6346L9.628 11.1843L10.9811 9.8312L11.4172 10.2714C11.4613 10.3158 11.5192 10.3381 11.5771 10.3381C11.6342 10.3381 11.6915 10.3165 11.7354 10.273C11.8234 10.1856 11.8244 10.0432 11.737 9.95499L11.2993 9.51301L12.6525 8.15982L13.0801 8.59175C13.1242 8.63615 13.1821 8.65843 13.24 8.65843C13.2971 8.65843 13.3544 8.63678 13.3982 8.59332C13.4865 8.50593 13.4873 8.36363 13.3999 8.2753L12.9705 7.84164L14.3237 6.48844L14.7432 6.91222C14.7873 6.95662 14.8452 6.9789 14.9031 6.9789C14.9602 6.9789 15.0175 6.95725 15.0612 6.91379C15.1496 6.8264 15.1503 6.6841 15.063 6.59577L14.6417 6.17042L15.9949 4.81722L16.4063 5.23269C16.4504 5.27709 16.5083 5.29937 16.5661 5.29937C16.6233 5.29937 16.6805 5.27772 16.7243 5.23426C16.8126 5.14687 16.8134 5.00456 16.726 4.91623L16.3131 4.4992L18.5441 2.26816V19.0443Z" fill="#222222" stroke="#222222" stroke-width="0.6"/>
<path d="M15.2888 11.3346C14.8211 11.1411 14.3079 11.2436 13.9491 11.6025L11.158 14.3938C10.7935 14.7583 10.6902 15.2811 10.888 15.7586C11.0835 16.2307 11.5206 16.5241 12.0281 16.5241H14.8194C15.5008 16.5241 16.0552 15.9653 16.0552 15.2784L16.0553 12.4869C16.0553 11.9718 15.7616 11.5304 15.2889 11.3346H15.2888ZM15.6054 15.2784C15.6054 15.7172 15.2529 16.0743 14.8196 16.0743H12.0281C11.6428 16.0743 11.4012 15.8223 11.3034 15.5865C11.204 15.3466 11.1971 14.9908 11.4759 14.712L14.2673 11.9205C14.4358 11.752 14.6321 11.69 14.8125 11.69C14.9234 11.69 15.0284 11.7136 15.1167 11.7501C15.353 11.848 15.6055 12.093 15.6055 12.4869L15.6054 15.2784Z" fill="#222222" stroke="#222222" stroke-width="0.6"/>
</svg>
